<?xml version="1.0" encoding="UTF-8"?>
<svg version="1.1" xmlns="http://www.w3.org/2000/svg" width="1563" height="1563">
<path d="M0 0 C156.75 0 313.5 0 475 0 C475 19.8 475 39.6 475 60 C446.62 60 418.24 60 389 60 C389 211.47 389 362.94 389 519 C366.56 519 344.12 519 321 519 C321 437.16 321 355.32 321 271 C271.5 271 222 271 171 271 C171 289.15 171 307.3 171 326 C167.80584492 338.77662031 164.54747661 349.55162764 153 357 C139.81610867 363.3163981 124.12118821 364.38115975 110.125 360 C95.83364616 354.44396611 85.10079378 346.34024838 74 336 C73.03191406 335.11441406 72.06382813 334.22882813 71.06640625 333.31640625 C50.75809021 313.95129211 32.85469329 286.71603581 30.796875 258.18359375 C30.57003293 244.89442892 32.93946997 232.79092969 42.0390625 222.75 C52.74966175 212.45571379 66.5233214 210.67112135 80.85173035 210.75949097 C82.40328582 210.75692769 82.40328582 210.75692769 83.98618585 210.75431263 C87.42079474 210.75104218 90.8552043 210.76198094 94.28979492 210.77294922 C96.76429235 210.77351386 99.23879012 210.77319574 101.71328735 210.77206421 C107.02461962 210.77161011 112.33589091 210.77724941 117.64720726 210.78853989 C125.3262956 210.80485293 133.00536023 210.81000881 140.68446402 210.81251587 C153.14585738 210.8168839 165.60722443 210.83016871 178.06860352 210.84912109 C190.16756054 210.86750304 202.26651036 210.88162524 214.36547852 210.89013672 C215.1199238 210.89067271 215.87436909 210.89120871 216.65167636 210.89176095 C222.55268037 210.89592024 228.45368453 210.89983393 234.35468876 210.90367007 C263.23648333 210.92250842 292.11821197 210.96275187 321 211 C321 161.17 321 111.34 321 60 C215.07 60 109.14 60 0 60 C0 40.2 0 20.4 0 0 Z " fill="#6D3D12" transform="translate(36,532)"/>
<path d="M0 0 C17.44323809 14.759663 24.41651124 31.44200244 26.3059082 53.67700195 C26.81827038 60.58345321 26.8125 67.28643277 26.8125 74.25 C-9.4875 74.25 -45.7875 74.25 -83.1875 74.25 C-83.77724612 109.05966561 -83.77724612 109.05966561 -68.63671875 139.19140625 C-59.93385324 146.50625493 -49.09996468 148.81060326 -37.90234375 148.4921875 C-20.71092336 146.95856439 -6.75691151 139.98834584 4.69921875 127.1328125 C9.7320887 120.95765072 13.74714208 114.08191318 17.8125 107.25 C20.7825 108.24 20.7825 108.24 23.8125 109.25 C16.84421821 127.05783124 4.64338937 141.10578227 -12.5625 149.625 C-30.43923336 157.25919218 -51.44987666 157.81973725 -69.69140625 150.92578125 C-86.66221057 143.43345628 -100.12283219 132.1357592 -108.09375 115.08984375 C-112.46088836 103.75088094 -113.95612327 92.3613751 -114.1875 80.25 C-114.20796387 79.44401367 -114.22842773 78.63802734 -114.24951172 77.80761719 C-114.84728834 51.85126717 -113.24761753 26.46858349 -94.56787109 6.53417969 C-86.96215391 -1.24259592 -78.38652533 -6.94697361 -68.1875 -10.75 C-66.94226562 -11.22953125 -66.94226562 -11.22953125 -65.671875 -11.71875 C-43.88670081 -18.59827869 -17.96342408 -13.70747437 0 0 Z M-72.375 5.4375 C-86.38676071 22.73267058 -83.1875 47.94541024 -83.1875 68.25 C-57.1175 68.25 -31.0475 68.25 -4.1875 68.25 C-2.64707472 32.94684369 -2.64707472 32.94684369 -17.1875 2.25 C-26.72710409 -5.82324008 -35.10409935 -8.38348071 -47.53125 -8.09765625 C-57.58954772 -7.14125828 -65.56476737 -1.80595354 -72.375 5.4375 Z " fill="#6D3D12" transform="translate(1105.1875,747.75)"/>
<path d="M0 0 C3.65762959 3.03344597 7.00197678 6.32306194 10.32177734 9.71923828 C11.21123047 10.56035156 11.21123047 10.56035156 12.11865234 11.41845703 C20.73539841 20.24367276 25.47612919 33.83390063 27.32177734 45.71923828 C27.51513672 46.86972656 27.51513672 46.86972656 27.71240234 48.04345703 C28.91937115 57.14336658 28.32177734 66.69936359 28.32177734 75.71923828 C-7.97822266 75.71923828 -44.27822266 75.71923828 -81.67822266 75.71923828 C-82.02125235 110.09259611 -82.02125235 110.09259611 -67.05322266 140.65673828 C-60.469704 145.82498997 -52.04062496 149.25466038 -43.67822266 149.71923828 C-42.96794922 149.76951172 -42.25767578 149.81978516 -41.52587891 149.87158203 C-25.68632534 150.51337918 -11.06336895 144.77409125 0.82958984 134.56689453 C7.47070707 128.301498 11.85236004 121.59490896 16.32177734 113.71923828 C17.31778884 112.050185 18.31635674 110.38264057 19.32177734 108.71923828 C20.97177734 109.04923828 22.62177734 109.37923828 24.32177734 109.71923828 C25.32177734 112.71923828 25.32177734 112.71923828 23.98583984 115.68798828 C23.3205294 116.87325715 22.63975369 118.04992906 21.94677734 119.21923828 C21.39920776 120.15255981 21.39920776 120.15255981 20.84057617 121.10473633 C10.71691023 137.9301356 -3.23142353 149.70576209 -22.22900391 155.17626953 C-42.59418368 159.69103825 -63.2456961 156.20075604 -81.17822266 145.65673828 C-97.05981609 135.023175 -106.69124834 120.48279536 -110.67822266 101.71923828 C-111.66358095 96.0057019 -111.85419041 90.46249386 -111.88134766 84.68408203 C-111.88704773 83.72836807 -111.8927478 82.77265411 -111.89862061 81.78797913 C-111.90803327 79.77004082 -111.91458967 77.75208741 -111.91845703 75.73413086 C-111.92811561 72.69047218 -111.95915569 69.64750316 -111.99072266 66.60400391 C-112.11721861 43.49228128 -107.21284832 23.25542411 -90.94775391 5.96533203 C-67.86160726 -16.88240346 -26.06440506 -19.89145606 0 0 Z M-70.67822266 6.71923828 C-84.33730468 23.73961566 -81.67822266 49.86105279 -81.67822266 69.71923828 C-55.60822266 69.71923828 -29.53822266 69.71923828 -2.67822266 69.71923828 C-0.98693974 34.25659863 -0.98693974 34.25659863 -15.91650391 3.24658203 C-24.80866851 -4.4625895 -34.22655419 -6.84646099 -45.82275391 -6.65185547 C-55.95575305 -5.67654147 -63.98160691 -0.80280525 -70.67822266 6.71923828 Z " fill="#6D3D12" transform="translate(741.67822265625,746.28076171875)"/>
<path d="M0 0 C22.11 0 44.22 0 67 0 C67 1.98 67 3.96 67 6 C61.72 6 56.44 6 51 6 C52.50626953 9.28517578 52.50626953 9.28517578 54.04296875 12.63671875 C61.87013325 29.71899028 69.63829317 46.82495831 77.30543518 63.97975159 C80.95466086 72.14082858 84.62483901 80.29249719 88.29376221 88.44473267 C89.47000256 91.05834553 90.64589888 93.67211298 91.82177734 96.28588867 C95.5320447 104.53114628 99.24761468 112.7737941 103 121 C108.85510066 109.3531025 114.60930545 97.65945492 120.3125 85.9375 C120.72863556 85.08283142 121.14477112 84.22816284 121.57351685 83.34759521 C127.66075151 70.84426741 133.70344002 58.32121194 139.68017578 45.76464844 C141.16462323 42.65516214 142.65777147 39.5499447 144.15234375 36.4453125 C144.68931885 35.32946777 145.22629395 34.21362305 145.77954102 33.06396484 C146.80389116 30.93626341 147.82904921 28.80895063 148.85522461 26.68212891 C151.99309102 20.16007709 155.02540536 13.59819174 158 7 C153.05 6.67 148.1 6.34 143 6 C143 4.02 143 2.04 143 0 C156.86 0 170.72 0 185 0 C185 1.98 185 3.96 185 6 C179.06 6.33 173.12 6.66 167 7 C165.94425781 9.20236328 165.94425781 9.20236328 164.8671875 11.44921875 C159.24017937 23.18237596 153.59937276 34.90863717 147.9375 46.625 C143.77375389 55.24147985 139.62272431 63.86380075 135.5 72.5 C131.37727557 81.13619948 127.22619751 89.75849657 123.0625 98.375 C118.19225557 108.45374845 113.33581953 118.53898314 108.49536133 128.63208008 C104.58768638 136.77914552 100.67062586 144.92166155 96.75 153.0625 C96.31359695 153.96866058 96.31359695 153.96866058 95.86837769 154.89312744 C94.24579525 158.2621862 92.62299487 161.63113991 91 165 C90.01 165 89.02 165 88 165 C79.95448012 147.50552148 71.965488 129.99025915 64.1875 112.375 C58.05104821 98.48093076 51.71568658 84.68715657 45.29766846 70.92111206 C38.72795295 56.82356266 32.33492796 42.65537787 26.07421875 28.41796875 C25.45718482 27.01685944 24.84000352 25.61581502 24.22265625 24.21484375 C23.7920842 23.23546341 23.7920842 23.23546341 23.35281372 22.23629761 C21.8478188 18.83461347 20.27125136 15.49315851 18.55859375 12.19140625 C17 9 17 9 17 6 C11.39 6 5.78 6 0 6 C0 4.02 0 2.04 0 0 Z " fill="#6D3D12" transform="translate(1336,736)"/>
</svg>
